<svg width="24" height="24" viewBox="0 0 24 24" fill="none" xmlns="http://www.w3.org/2000/svg">
<mask id="mask0_93_898" style="mask-type:alpha" maskUnits="userSpaceOnUse" x="0" y="0" width="24" height="24">
<circle cx="12" cy="12" r="12" fill="#D9D9D9"/>
</mask>
<g mask="url(#mask0_93_898)">
<ellipse cx="12.5" cy="12" rx="16.5" ry="16" fill="#009B3A"/>
<path fill-rule="evenodd" clip-rule="evenodd" d="M-3 22H26.9993V2H-3V22Z" fill="#009B3A"/>
<path fill-rule="evenodd" clip-rule="evenodd" d="M0.716431 11.9994L11.9987 19.2036L23.2811 11.9994L11.9987 4.7951L0.716431 11.9994Z" fill="#FEDF00"/>
<path fill-rule="evenodd" clip-rule="evenodd" d="M8.11524 10.9408L8.05188 11.1352L8.14836 11.1669" fill="black"/>
<path fill-rule="evenodd" clip-rule="evenodd" d="M8.11515 10.9408L8.17851 11.1352L8.08203 11.1669" fill="white"/>
<path fill-rule="evenodd" clip-rule="evenodd" d="M8.3097 11.082H8.10522V11.1843" fill="white"/>
<path fill-rule="evenodd" clip-rule="evenodd" d="M8.30957 11.082L8.14398 11.2016L8.0835 11.1195" fill="white"/>
<path fill-rule="evenodd" clip-rule="evenodd" d="M7.92224 11.082L8.08784 11.2016L8.14832 11.1195" fill="white"/>
<path fill-rule="evenodd" clip-rule="evenodd" d="M7.92224 11.082H8.12672V11.1843" fill="white"/>
<path fill-rule="evenodd" clip-rule="evenodd" d="M8.23467 11.3096L8.17131 11.1152L8.07483 11.1469" fill="white"/>
<path fill-rule="evenodd" clip-rule="evenodd" d="M8.23469 11.3095L8.06909 11.19L8.12957 11.1079" fill="white"/>
<path fill-rule="evenodd" clip-rule="evenodd" d="M7.99573 11.3095L8.16133 11.19L8.10085 11.1079" fill="white"/>
<path fill-rule="evenodd" clip-rule="evenodd" d="M7.99573 11.3096L8.05909 11.1152L8.15557 11.1469" fill="white"/>
<path fill-rule="evenodd" clip-rule="evenodd" d="M8.53565 12.941L8.47229 13.1354L8.56877 13.1671" fill="black"/>
<path fill-rule="evenodd" clip-rule="evenodd" d="M8.53556 12.941L8.59892 13.1354L8.50244 13.1671" fill="white"/>
<path fill-rule="evenodd" clip-rule="evenodd" d="M8.73011 13.0822H8.52563V13.1845" fill="white"/>
<path fill-rule="evenodd" clip-rule="evenodd" d="M8.73011 13.0822L8.56451 13.2017L8.50403 13.1197" fill="white"/>
<path fill-rule="evenodd" clip-rule="evenodd" d="M8.34265 13.0822L8.50825 13.2017L8.56873 13.1197" fill="white"/>
<path fill-rule="evenodd" clip-rule="evenodd" d="M8.34265 13.0822H8.54713V13.1845" fill="white"/>
<path fill-rule="evenodd" clip-rule="evenodd" d="M8.65666 13.3098L8.59331 13.1154L8.49683 13.147" fill="white"/>
<path fill-rule="evenodd" clip-rule="evenodd" d="M8.65669 13.3097L8.49109 13.1902L8.55157 13.1081" fill="white"/>
<path fill-rule="evenodd" clip-rule="evenodd" d="M8.41614 13.3097L8.58174 13.1902L8.52126 13.1081" fill="white"/>
<path fill-rule="evenodd" clip-rule="evenodd" d="M8.41614 13.3098L8.4795 13.1154L8.57598 13.147" fill="white"/>
<path fill-rule="evenodd" clip-rule="evenodd" d="M7.9537 13.4033L7.90186 13.5646L7.98249 13.5905" fill="black"/>
<path fill-rule="evenodd" clip-rule="evenodd" d="M7.95385 13.4033L8.00569 13.5646L7.92505 13.5905" fill="white"/>
<path fill-rule="evenodd" clip-rule="evenodd" d="M8.11511 13.52H7.94519V13.6049" fill="white"/>
<path fill-rule="evenodd" clip-rule="evenodd" d="M8.11518 13.52L7.97838 13.6193L7.92798 13.5502" fill="white"/>
<path fill-rule="evenodd" clip-rule="evenodd" d="M7.79272 13.52L7.92952 13.6193L7.97992 13.5502" fill="white"/>
<path fill-rule="evenodd" clip-rule="evenodd" d="M7.79272 13.52H7.96264V13.6049" fill="white"/>
<path fill-rule="evenodd" clip-rule="evenodd" d="M8.05326 13.71L8.00142 13.5488L7.92078 13.5747" fill="white"/>
<path fill-rule="evenodd" clip-rule="evenodd" d="M8.0533 13.71L7.9165 13.6106L7.9669 13.5415" fill="white"/>
<path fill-rule="evenodd" clip-rule="evenodd" d="M7.85303 13.71L7.98983 13.6106L7.93943 13.5415" fill="white"/>
<path fill-rule="evenodd" clip-rule="evenodd" d="M7.85303 13.71L7.90487 13.5488L7.98551 13.5747" fill="white"/>
<path fill-rule="evenodd" clip-rule="evenodd" d="M9.00229 12.7567L8.97205 12.8488L9.01813 12.8632" fill="black"/>
<path fill-rule="evenodd" clip-rule="evenodd" d="M9.00229 12.7567L9.03253 12.8488L8.98645 12.8632" fill="white"/>
<path fill-rule="evenodd" clip-rule="evenodd" d="M9.09428 12.8243H8.9978V12.8732" fill="white"/>
<path fill-rule="evenodd" clip-rule="evenodd" d="M9.09445 12.8243L9.01525 12.8819L8.98645 12.843" fill="white"/>
<path fill-rule="evenodd" clip-rule="evenodd" d="M8.91003 12.8243L8.98923 12.8819L9.01803 12.843" fill="white"/>
<path fill-rule="evenodd" clip-rule="evenodd" d="M8.91003 12.8243H9.00651V12.8732" fill="white"/>
<path fill-rule="evenodd" clip-rule="evenodd" d="M9.05996 12.9323L9.02972 12.8401L8.98364 12.8545" fill="white"/>
<path fill-rule="evenodd" clip-rule="evenodd" d="M9.05979 12.9324L8.98059 12.8748L9.00939 12.8359" fill="white"/>
<path fill-rule="evenodd" clip-rule="evenodd" d="M8.9447 12.9324L9.0239 12.8748L8.9951 12.8359" fill="white"/>
<path fill-rule="evenodd" clip-rule="evenodd" d="M8.9447 12.9323L8.97494 12.8401L9.02102 12.8545" fill="white"/>
<path fill-rule="evenodd" clip-rule="evenodd" d="M9.52645 13.4479L9.47461 13.6092L9.55525 13.6351" fill="black"/>
<path fill-rule="evenodd" clip-rule="evenodd" d="M9.52636 13.4479L9.5782 13.6092L9.49756 13.6351" fill="white"/>
<path fill-rule="evenodd" clip-rule="evenodd" d="M9.68762 13.5659H9.5177V13.6509" fill="white"/>
<path fill-rule="evenodd" clip-rule="evenodd" d="M9.68756 13.5659L9.55077 13.6653L9.50037 13.5962" fill="white"/>
<path fill-rule="evenodd" clip-rule="evenodd" d="M9.36511 13.5659L9.50191 13.6653L9.55231 13.5962" fill="white"/>
<path fill-rule="evenodd" clip-rule="evenodd" d="M9.36511 13.5659H9.53503V13.6509" fill="white"/>
<path fill-rule="evenodd" clip-rule="evenodd" d="M9.62577 13.7546L9.57393 13.5933L9.49329 13.6192" fill="white"/>
<path fill-rule="evenodd" clip-rule="evenodd" d="M9.62557 13.7545L9.48877 13.6552L9.53917 13.5861" fill="white"/>
<path fill-rule="evenodd" clip-rule="evenodd" d="M9.42712 13.7545L9.56392 13.6552L9.51352 13.5861" fill="white"/>
<path fill-rule="evenodd" clip-rule="evenodd" d="M9.42712 13.7546L9.47896 13.5933L9.5596 13.6192" fill="white"/>
<path fill-rule="evenodd" clip-rule="evenodd" d="M9.3838 13.9547L9.34204 14.0843L9.40684 14.1059" fill="black"/>
<path fill-rule="evenodd" clip-rule="evenodd" d="M9.38376 13.9547L9.42552 14.0843L9.36072 14.1059" fill="white"/>
<path fill-rule="evenodd" clip-rule="evenodd" d="M9.51341 14.0484H9.37805V14.1161" fill="white"/>
<path fill-rule="evenodd" clip-rule="evenodd" d="M9.51341 14.0484L9.40397 14.1276L9.36365 14.0729" fill="white"/>
<path fill-rule="evenodd" clip-rule="evenodd" d="M9.25415 14.0484L9.36359 14.1276L9.40391 14.0729" fill="white"/>
<path fill-rule="evenodd" clip-rule="evenodd" d="M9.25415 14.0484H9.38951V14.1161" fill="white"/>
<path fill-rule="evenodd" clip-rule="evenodd" d="M9.46447 14.1996L9.42271 14.07L9.35791 14.0916" fill="white"/>
<path fill-rule="evenodd" clip-rule="evenodd" d="M9.46454 14.1996L9.3551 14.1204L9.39542 14.0657" fill="white"/>
<path fill-rule="evenodd" clip-rule="evenodd" d="M9.30457 14.1996L9.414 14.1204L9.37368 14.0657" fill="white"/>
<path fill-rule="evenodd" clip-rule="evenodd" d="M9.30457 14.1996L9.34633 14.07L9.41112 14.0916" fill="white"/>
<path fill-rule="evenodd" clip-rule="evenodd" d="M13.4749 10.3203L13.4115 10.5146L13.508 10.5463" fill="black"/>
<path fill-rule="evenodd" clip-rule="evenodd" d="M13.4749 10.3203L13.5383 10.5146L13.4418 10.5463" fill="white"/>
<path fill-rule="evenodd" clip-rule="evenodd" d="M13.6692 10.4614H13.4647V10.5637" fill="white"/>
<path fill-rule="evenodd" clip-rule="evenodd" d="M13.6693 10.4614L13.5037 10.5809L13.4432 10.4989" fill="white"/>
<path fill-rule="evenodd" clip-rule="evenodd" d="M13.2805 10.4614L13.4461 10.5809L13.5066 10.4989" fill="white"/>
<path fill-rule="evenodd" clip-rule="evenodd" d="M13.2805 10.4614H13.485V10.5637" fill="white"/>
<path fill-rule="evenodd" clip-rule="evenodd" d="M13.5944 10.689L13.531 10.4946L13.4346 10.5262" fill="white"/>
<path fill-rule="evenodd" clip-rule="evenodd" d="M13.5943 10.6889L13.4287 10.5694L13.4892 10.4873" fill="white"/>
<path fill-rule="evenodd" clip-rule="evenodd" d="M13.3553 10.6889L13.5209 10.5694L13.4605 10.4873" fill="white"/>
<path fill-rule="evenodd" clip-rule="evenodd" d="M13.3553 10.689L13.4187 10.4946L13.5152 10.5262" fill="white"/>
<path fill-rule="evenodd" clip-rule="evenodd" d="M15.3324 13.4651L15.269 13.6595L15.3655 13.6912" fill="black"/>
<path fill-rule="evenodd" clip-rule="evenodd" d="M15.3324 13.4651L15.3958 13.6595L15.2993 13.6912" fill="white"/>
<path fill-rule="evenodd" clip-rule="evenodd" d="M15.5269 13.6063H15.3224V13.7085" fill="white"/>
<path fill-rule="evenodd" clip-rule="evenodd" d="M15.5267 13.6063L15.3611 13.7258L15.3007 13.6437" fill="white"/>
<path fill-rule="evenodd" clip-rule="evenodd" d="M15.1394 13.6063L15.305 13.7258L15.3655 13.6437" fill="white"/>
<path fill-rule="evenodd" clip-rule="evenodd" d="M15.1394 13.6063H15.3439V13.7085" fill="white"/>
<path fill-rule="evenodd" clip-rule="evenodd" d="M15.4521 13.8338L15.3887 13.6394L15.2922 13.6711" fill="white"/>
<path fill-rule="evenodd" clip-rule="evenodd" d="M15.452 13.8339L15.2864 13.7143L15.3469 13.6323" fill="white"/>
<path fill-rule="evenodd" clip-rule="evenodd" d="M15.2129 13.8339L15.3785 13.7143L15.318 13.6323" fill="white"/>
<path fill-rule="evenodd" clip-rule="evenodd" d="M15.2129 13.8338L15.2763 13.6394L15.3727 13.6711" fill="white"/>
<path fill-rule="evenodd" clip-rule="evenodd" d="M15.9934 13.5789L15.9517 13.7085L16.0165 13.7301" fill="black"/>
<path fill-rule="evenodd" clip-rule="evenodd" d="M15.9934 13.5789L16.0351 13.7085L15.9703 13.7301" fill="white"/>
<path fill-rule="evenodd" clip-rule="evenodd" d="M16.1216 13.6726H15.9862V13.7403" fill="white"/>
<path fill-rule="evenodd" clip-rule="evenodd" d="M16.1216 13.6726L16.0121 13.7518L15.9718 13.6971" fill="white"/>
<path fill-rule="evenodd" clip-rule="evenodd" d="M15.8639 13.6726L15.9733 13.7518L16.0137 13.6971" fill="white"/>
<path fill-rule="evenodd" clip-rule="evenodd" d="M15.8639 13.6726H15.9993V13.7403" fill="white"/>
<path fill-rule="evenodd" clip-rule="evenodd" d="M16.0726 13.8252L16.0309 13.6956L15.9661 13.7172" fill="white"/>
<path fill-rule="evenodd" clip-rule="evenodd" d="M16.0725 13.8251L15.963 13.7459L16.0033 13.6912" fill="white"/>
<path fill-rule="evenodd" clip-rule="evenodd" d="M15.9128 13.8251L16.0223 13.7459L15.982 13.6912" fill="white"/>
<path fill-rule="evenodd" clip-rule="evenodd" d="M15.9128 13.8252L15.9546 13.6956L16.0194 13.7172" fill="white"/>
<path fill-rule="evenodd" clip-rule="evenodd" d="M15.5267 13.9202L15.4749 14.0815L15.5555 14.1074" fill="black"/>
<path fill-rule="evenodd" clip-rule="evenodd" d="M15.5268 13.9202L15.5787 14.0815L15.498 14.1074" fill="white"/>
<path fill-rule="evenodd" clip-rule="evenodd" d="M15.6881 14.0383H15.5182V14.1233" fill="white"/>
<path fill-rule="evenodd" clip-rule="evenodd" d="M15.6881 14.0383L15.5513 14.1377L15.5009 14.0686" fill="white"/>
<path fill-rule="evenodd" clip-rule="evenodd" d="M15.3656 14.0383L15.5024 14.1377L15.5528 14.0686" fill="white"/>
<path fill-rule="evenodd" clip-rule="evenodd" d="M15.3656 14.0383H15.5355V14.1233" fill="white"/>
<path fill-rule="evenodd" clip-rule="evenodd" d="M15.6261 14.2283L15.5743 14.067L15.4937 14.0929" fill="white"/>
<path fill-rule="evenodd" clip-rule="evenodd" d="M15.6262 14.2284L15.4894 14.129L15.5398 14.0599" fill="white"/>
<path fill-rule="evenodd" clip-rule="evenodd" d="M15.4275 14.2284L15.5643 14.129L15.5139 14.0599" fill="white"/>
<path fill-rule="evenodd" clip-rule="evenodd" d="M15.4275 14.2283L15.4793 14.067L15.56 14.0929" fill="white"/>
<path fill-rule="evenodd" clip-rule="evenodd" d="M14.3806 14.9166L14.3287 15.0779L14.4094 15.1038" fill="black"/>
<path fill-rule="evenodd" clip-rule="evenodd" d="M14.3805 14.9166L14.4323 15.0779L14.3517 15.1038" fill="white"/>
<path fill-rule="evenodd" clip-rule="evenodd" d="M14.5433 15.0348H14.3734V15.1197" fill="white"/>
<path fill-rule="evenodd" clip-rule="evenodd" d="M14.5433 15.0348L14.4065 15.1341L14.3561 15.065" fill="white"/>
<path fill-rule="evenodd" clip-rule="evenodd" d="M14.2192 15.0348L14.356 15.1341L14.4064 15.065" fill="white"/>
<path fill-rule="evenodd" clip-rule="evenodd" d="M14.2192 15.0348H14.3892V15.1197" fill="white"/>
<path fill-rule="evenodd" clip-rule="evenodd" d="M14.4814 15.2249L14.4295 15.0637L14.3489 15.0896" fill="white"/>
<path fill-rule="evenodd" clip-rule="evenodd" d="M14.4813 15.2248L14.3445 15.1255L14.3949 15.0563" fill="white"/>
<path fill-rule="evenodd" clip-rule="evenodd" d="M14.2811 15.2248L14.4179 15.1255L14.3675 15.0563" fill="white"/>
<path fill-rule="evenodd" clip-rule="evenodd" d="M14.2811 15.2249L14.333 15.0637L14.4136 15.0896" fill="white"/>
<path fill-rule="evenodd" clip-rule="evenodd" d="M14.3749 15.4308L14.3331 15.5604L14.3979 15.582" fill="black"/>
<path fill-rule="evenodd" clip-rule="evenodd" d="M14.3747 15.4308L14.4165 15.5604L14.3517 15.582" fill="white"/>
<path fill-rule="evenodd" clip-rule="evenodd" d="M14.5044 15.5244H14.369V15.5921" fill="white"/>
<path fill-rule="evenodd" clip-rule="evenodd" d="M14.5045 15.5244L14.3951 15.6036L14.3547 15.5489" fill="white"/>
<path fill-rule="evenodd" clip-rule="evenodd" d="M14.2454 15.5244L14.3548 15.6036L14.3951 15.5489" fill="white"/>
<path fill-rule="evenodd" clip-rule="evenodd" d="M14.2454 15.5244H14.3807V15.5921" fill="white"/>
<path fill-rule="evenodd" clip-rule="evenodd" d="M14.4541 15.6755L14.4123 15.5459L14.3475 15.5675" fill="white"/>
<path fill-rule="evenodd" clip-rule="evenodd" d="M14.4539 15.6755L14.3445 15.5963L14.3848 15.5416" fill="white"/>
<path fill-rule="evenodd" clip-rule="evenodd" d="M14.2942 15.6755L14.4036 15.5963L14.3633 15.5416" fill="white"/>
<path fill-rule="evenodd" clip-rule="evenodd" d="M14.2942 15.6755L14.3359 15.5459L14.4007 15.5675" fill="white"/>
<path fill-rule="evenodd" clip-rule="evenodd" d="M14.8544 14.5754L14.8126 14.705L14.8774 14.7266" fill="black"/>
<path fill-rule="evenodd" clip-rule="evenodd" d="M14.8543 14.5754L14.8961 14.705L14.8313 14.7266" fill="white"/>
<path fill-rule="evenodd" clip-rule="evenodd" d="M14.9825 14.6691H14.8472V14.7368" fill="white"/>
<path fill-rule="evenodd" clip-rule="evenodd" d="M14.9824 14.6691L14.873 14.7483L14.8326 14.6936" fill="white"/>
<path fill-rule="evenodd" clip-rule="evenodd" d="M14.7247 14.6691L14.8342 14.7483L14.8745 14.6936" fill="white"/>
<path fill-rule="evenodd" clip-rule="evenodd" d="M14.7247 14.6691H14.8601V14.7368" fill="white"/>
<path fill-rule="evenodd" clip-rule="evenodd" d="M14.9335 14.8216L14.8917 14.692L14.8269 14.7136" fill="white"/>
<path fill-rule="evenodd" clip-rule="evenodd" d="M14.9337 14.8217L14.8242 14.7425L14.8645 14.6877" fill="white"/>
<path fill-rule="evenodd" clip-rule="evenodd" d="M14.7737 14.8217L14.8831 14.7425L14.8428 14.6877" fill="white"/>
<path fill-rule="evenodd" clip-rule="evenodd" d="M14.7737 14.8216L14.8154 14.692L14.8802 14.7136" fill="white"/>
<path fill-rule="evenodd" clip-rule="evenodd" d="M15.2359 14.3019L15.1841 14.4632L15.2647 14.4891" fill="black"/>
<path fill-rule="evenodd" clip-rule="evenodd" d="M15.2361 14.3019L15.2879 14.4632L15.2073 14.4891" fill="white"/>
<path fill-rule="evenodd" clip-rule="evenodd" d="M15.3972 14.4199H15.2273V14.5048" fill="white"/>
<path fill-rule="evenodd" clip-rule="evenodd" d="M15.3972 14.4199L15.2604 14.5192L15.21 14.4501" fill="white"/>
<path fill-rule="evenodd" clip-rule="evenodd" d="M15.0746 14.4199L15.2114 14.5192L15.2618 14.4501" fill="white"/>
<path fill-rule="evenodd" clip-rule="evenodd" d="M15.0746 14.4199H15.2445V14.5048" fill="white"/>
<path fill-rule="evenodd" clip-rule="evenodd" d="M15.3354 14.6099L15.2835 14.4487L15.2029 14.4746" fill="white"/>
<path fill-rule="evenodd" clip-rule="evenodd" d="M15.3353 14.61L15.1985 14.5106L15.2489 14.4415" fill="white"/>
<path fill-rule="evenodd" clip-rule="evenodd" d="M15.1351 14.61L15.2719 14.5106L15.2215 14.4415" fill="white"/>
<path fill-rule="evenodd" clip-rule="evenodd" d="M15.1351 14.6099L15.187 14.4487L15.2676 14.4746" fill="white"/>
<path fill-rule="evenodd" clip-rule="evenodd" d="M14.3618 14.4847L14.3201 14.6143L14.3849 14.6359" fill="black"/>
<path fill-rule="evenodd" clip-rule="evenodd" d="M14.3618 14.4847L14.4035 14.6143L14.3387 14.6359" fill="white"/>
<path fill-rule="evenodd" clip-rule="evenodd" d="M14.4914 14.5797H14.3561V14.6473" fill="white"/>
<path fill-rule="evenodd" clip-rule="evenodd" d="M14.4914 14.5797L14.382 14.6589L14.3417 14.6041" fill="white"/>
<path fill-rule="evenodd" clip-rule="evenodd" d="M14.2322 14.5797L14.3416 14.6589L14.3819 14.6041" fill="white"/>
<path fill-rule="evenodd" clip-rule="evenodd" d="M14.2322 14.5797H14.3675V14.6473" fill="white"/>
<path fill-rule="evenodd" clip-rule="evenodd" d="M14.441 14.731L14.3993 14.6014L14.3345 14.623" fill="white"/>
<path fill-rule="evenodd" clip-rule="evenodd" d="M14.441 14.7309L14.3315 14.6517L14.3719 14.597" fill="white"/>
<path fill-rule="evenodd" clip-rule="evenodd" d="M14.2811 14.7309L14.3906 14.6517L14.3502 14.597" fill="white"/>
<path fill-rule="evenodd" clip-rule="evenodd" d="M14.2811 14.731L14.3229 14.6014L14.3877 14.623" fill="white"/>
<path fill-rule="evenodd" clip-rule="evenodd" d="M10.1872 12.0237L10.1354 12.185L10.216 12.2109" fill="black"/>
<path fill-rule="evenodd" clip-rule="evenodd" d="M10.1874 12.0237L10.2392 12.185L10.1586 12.2109" fill="white"/>
<path fill-rule="evenodd" clip-rule="evenodd" d="M10.3486 12.1418H10.1787V12.2268" fill="white"/>
<path fill-rule="evenodd" clip-rule="evenodd" d="M10.3486 12.1418L10.2118 12.2412L10.1614 12.1721" fill="white"/>
<path fill-rule="evenodd" clip-rule="evenodd" d="M10.0247 12.1418L10.1615 12.2412L10.2119 12.1721" fill="white"/>
<path fill-rule="evenodd" clip-rule="evenodd" d="M10.0247 12.1418H10.1946V12.2268" fill="white"/>
<path fill-rule="evenodd" clip-rule="evenodd" d="M10.2867 12.3319L10.2348 12.1707L10.1542 12.1966" fill="white"/>
<path fill-rule="evenodd" clip-rule="evenodd" d="M10.2867 12.3319L10.1499 12.2325L10.2003 12.1634" fill="white"/>
<path fill-rule="evenodd" clip-rule="evenodd" d="M10.0865 12.3319L10.2233 12.2325L10.1729 12.1634" fill="white"/>
<path fill-rule="evenodd" clip-rule="evenodd" d="M10.0865 12.3319L10.1384 12.1707L10.219 12.1966" fill="white"/>
<path fill-rule="evenodd" clip-rule="evenodd" d="M13.2935 11.6249L13.2517 11.7545L13.3165 11.7761" fill="black"/>
<path fill-rule="evenodd" clip-rule="evenodd" d="M13.2933 11.6249L13.3351 11.7545L13.2703 11.7761" fill="white"/>
<path fill-rule="evenodd" clip-rule="evenodd" d="M13.423 11.7184H13.2876V11.7861" fill="white"/>
<path fill-rule="evenodd" clip-rule="evenodd" d="M13.4227 11.7184L13.3133 11.7976L13.2729 11.7429" fill="white"/>
<path fill-rule="evenodd" clip-rule="evenodd" d="M13.1638 11.7184L13.2733 11.7976L13.3136 11.7429" fill="white"/>
<path fill-rule="evenodd" clip-rule="evenodd" d="M13.1638 11.7184H13.2992V11.7861" fill="white"/>
<path fill-rule="evenodd" clip-rule="evenodd" d="M13.374 11.8697L13.3323 11.7401L13.2675 11.7617" fill="white"/>
<path fill-rule="evenodd" clip-rule="evenodd" d="M13.374 11.8696L13.2645 11.7904L13.3048 11.7357" fill="white"/>
<path fill-rule="evenodd" clip-rule="evenodd" d="M13.2141 11.8696L13.3236 11.7904L13.2832 11.7357" fill="white"/>
<path fill-rule="evenodd" clip-rule="evenodd" d="M13.2141 11.8697L13.2559 11.7401L13.3207 11.7617" fill="white"/>
<path fill-rule="evenodd" clip-rule="evenodd" d="M11.9989 13.9318L11.9355 14.1262L12.032 14.1579" fill="black"/>
<path fill-rule="evenodd" clip-rule="evenodd" d="M11.9988 13.9318L12.0622 14.1262L11.9657 14.1579" fill="white"/>
<path fill-rule="evenodd" clip-rule="evenodd" d="M12.1932 14.0729H11.9888V14.1751" fill="white"/>
<path fill-rule="evenodd" clip-rule="evenodd" d="M12.1932 14.0729L12.0276 14.1924L11.9672 14.1103" fill="white"/>
<path fill-rule="evenodd" clip-rule="evenodd" d="M11.8059 14.0729L11.9715 14.1924L12.032 14.1103" fill="white"/>
<path fill-rule="evenodd" clip-rule="evenodd" d="M11.8059 14.0729H12.0104V14.1751" fill="white"/>
<path fill-rule="evenodd" clip-rule="evenodd" d="M12.1183 14.3004L12.055 14.106L11.9585 14.1377" fill="white"/>
<path fill-rule="evenodd" clip-rule="evenodd" d="M12.1185 14.3003L11.9529 14.1808L12.0134 14.0987" fill="white"/>
<path fill-rule="evenodd" clip-rule="evenodd" d="M11.8794 14.3003L12.045 14.1808L11.9845 14.0987" fill="white"/>
<path fill-rule="evenodd" clip-rule="evenodd" d="M11.8794 14.3004L11.9428 14.106L12.0392 14.1377" fill="white"/>
<path fill-rule="evenodd" clip-rule="evenodd" d="M12.549 13.0202L12.4972 13.1815L12.5778 13.2074" fill="black"/>
<path fill-rule="evenodd" clip-rule="evenodd" d="M12.5489 13.0202L12.6008 13.1815L12.5201 13.2074" fill="white"/>
<path fill-rule="evenodd" clip-rule="evenodd" d="M12.7117 13.1384H12.5417V13.2233" fill="white"/>
<path fill-rule="evenodd" clip-rule="evenodd" d="M12.7116 13.1384L12.5748 13.2377L12.5244 13.1686" fill="white"/>
<path fill-rule="evenodd" clip-rule="evenodd" d="M12.3877 13.1384L12.5245 13.2377L12.5749 13.1686" fill="white"/>
<path fill-rule="evenodd" clip-rule="evenodd" d="M12.3877 13.1384H12.5576V13.2233" fill="white"/>
<path fill-rule="evenodd" clip-rule="evenodd" d="M12.6497 13.3285L12.5979 13.1672L12.5172 13.1931" fill="white"/>
<path fill-rule="evenodd" clip-rule="evenodd" d="M12.6497 13.3284L12.5129 13.229L12.5633 13.1599" fill="white"/>
<path fill-rule="evenodd" clip-rule="evenodd" d="M12.4496 13.3284L12.5864 13.229L12.536 13.1599" fill="white"/>
<path fill-rule="evenodd" clip-rule="evenodd" d="M12.4496 13.3285L12.5014 13.1672L12.5821 13.1931" fill="white"/>
<path fill-rule="evenodd" clip-rule="evenodd" d="M11.9987 12.5941L11.9469 12.7553L12.0275 12.7813" fill="black"/>
<path fill-rule="evenodd" clip-rule="evenodd" d="M11.9989 12.5941L12.0507 12.7553L11.9701 12.7813" fill="white"/>
<path fill-rule="evenodd" clip-rule="evenodd" d="M12.16 12.7107H11.9901V12.7957" fill="white"/>
<path fill-rule="evenodd" clip-rule="evenodd" d="M12.1601 12.7107L12.0233 12.8101L11.9729 12.7409" fill="white"/>
<path fill-rule="evenodd" clip-rule="evenodd" d="M11.8374 12.7107L11.9742 12.8101L12.0246 12.7409" fill="white"/>
<path fill-rule="evenodd" clip-rule="evenodd" d="M11.8374 12.7107H12.0073V12.7957" fill="white"/>
<path fill-rule="evenodd" clip-rule="evenodd" d="M12.0996 12.9007L12.0478 12.7394L11.9672 12.7654" fill="white"/>
<path fill-rule="evenodd" clip-rule="evenodd" d="M12.0997 12.9007L11.9629 12.8013L12.0133 12.7322" fill="white"/>
<path fill-rule="evenodd" clip-rule="evenodd" d="M11.8994 12.9007L12.0362 12.8013L11.9858 12.7322" fill="white"/>
<path fill-rule="evenodd" clip-rule="evenodd" d="M11.8994 12.9007L11.9513 12.7394L12.0319 12.7654" fill="white"/>
<path fill-rule="evenodd" clip-rule="evenodd" d="M11.5209 13.0548L11.4791 13.1844L11.5439 13.206" fill="black"/>
<path fill-rule="evenodd" clip-rule="evenodd" d="M11.5207 13.0548L11.5625 13.1844L11.4977 13.206" fill="white"/>
<path fill-rule="evenodd" clip-rule="evenodd" d="M11.649 13.1484H11.5137V13.2161" fill="white"/>
<path fill-rule="evenodd" clip-rule="evenodd" d="M11.6489 13.1484L11.5395 13.2276L11.4991 13.1729" fill="white"/>
<path fill-rule="evenodd" clip-rule="evenodd" d="M11.3912 13.1484L11.5007 13.2276L11.541 13.1729" fill="white"/>
<path fill-rule="evenodd" clip-rule="evenodd" d="M11.3912 13.1484H11.5266V13.2161" fill="white"/>
<path fill-rule="evenodd" clip-rule="evenodd" d="M11.6 13.3011L11.5582 13.1715L11.4934 13.1931" fill="white"/>
<path fill-rule="evenodd" clip-rule="evenodd" d="M11.5999 13.3011L11.4905 13.2219L11.5308 13.1672" fill="white"/>
<path fill-rule="evenodd" clip-rule="evenodd" d="M11.4402 13.3011L11.5496 13.2219L11.5093 13.1672" fill="white"/>
<path fill-rule="evenodd" clip-rule="evenodd" d="M11.4402 13.3011L11.4819 13.1715L11.5467 13.1931" fill="white"/>
<path fill-rule="evenodd" clip-rule="evenodd" d="M11.7599 13.4235L11.7296 13.5156L11.7757 13.53" fill="black"/>
<path fill-rule="evenodd" clip-rule="evenodd" d="M11.7599 13.4235L11.7901 13.5156L11.744 13.53" fill="white"/>
<path fill-rule="evenodd" clip-rule="evenodd" d="M11.852 13.491H11.7555V13.54" fill="white"/>
<path fill-rule="evenodd" clip-rule="evenodd" d="M11.852 13.491L11.7728 13.5486L11.744 13.5097" fill="white"/>
<path fill-rule="evenodd" clip-rule="evenodd" d="M11.6676 13.491L11.7468 13.5486L11.7756 13.5097" fill="white"/>
<path fill-rule="evenodd" clip-rule="evenodd" d="M11.6676 13.491H11.7641V13.54" fill="white"/>
<path fill-rule="evenodd" clip-rule="evenodd" d="M11.8174 13.5992L11.7872 13.507L11.7411 13.5214" fill="white"/>
<path fill-rule="evenodd" clip-rule="evenodd" d="M11.8175 13.5991L11.7383 13.5415L11.7671 13.5026" fill="white"/>
<path fill-rule="evenodd" clip-rule="evenodd" d="M11.7021 13.5991L11.7813 13.5415L11.7525 13.5026" fill="white"/>
<path fill-rule="evenodd" clip-rule="evenodd" d="M11.7021 13.5992L11.7324 13.507L11.7785 13.5214" fill="white"/>
<path fill-rule="evenodd" clip-rule="evenodd" d="M13.4231 15.0333L13.3712 15.1946L13.4519 15.2205" fill="black"/>
<path fill-rule="evenodd" clip-rule="evenodd" d="M13.423 15.0333L13.4748 15.1946L13.3942 15.2205" fill="white"/>
<path fill-rule="evenodd" clip-rule="evenodd" d="M13.5842 15.1515H13.4143V15.2364" fill="white"/>
<path fill-rule="evenodd" clip-rule="evenodd" d="M13.5843 15.1515L13.4475 15.2508L13.3971 15.1817" fill="white"/>
<path fill-rule="evenodd" clip-rule="evenodd" d="M13.2617 15.1515L13.3985 15.2508L13.4489 15.1817" fill="white"/>
<path fill-rule="evenodd" clip-rule="evenodd" d="M13.2617 15.1515H13.4316V15.2364" fill="white"/>
<path fill-rule="evenodd" clip-rule="evenodd" d="M13.5238 15.3415L13.472 15.1802L13.3914 15.2062" fill="white"/>
<path fill-rule="evenodd" clip-rule="evenodd" d="M13.5239 15.3415L13.3871 15.2421L13.4375 15.173" fill="white"/>
<path fill-rule="evenodd" clip-rule="evenodd" d="M13.3236 15.3415L13.4604 15.2421L13.41 15.173" fill="white"/>
<path fill-rule="evenodd" clip-rule="evenodd" d="M13.3236 15.3415L13.3754 15.1802L13.4561 15.2062" fill="white"/>
<path fill-rule="evenodd" clip-rule="evenodd" d="M13.8306 14.6474L13.7888 14.777L13.8536 14.7986" fill="black"/>
<path fill-rule="evenodd" clip-rule="evenodd" d="M13.8304 14.6474L13.8722 14.777L13.8074 14.7986" fill="white"/>
<path fill-rule="evenodd" clip-rule="evenodd" d="M13.9601 14.741H13.8247V14.8086" fill="white"/>
<path fill-rule="evenodd" clip-rule="evenodd" d="M13.9602 14.741L13.8507 14.8202L13.8104 14.7654" fill="white"/>
<path fill-rule="evenodd" clip-rule="evenodd" d="M13.7023 14.741L13.8117 14.8202L13.852 14.7654" fill="white"/>
<path fill-rule="evenodd" clip-rule="evenodd" d="M13.7023 14.741H13.8376V14.8086" fill="white"/>
<path fill-rule="evenodd" clip-rule="evenodd" d="M13.9111 14.8922L13.8694 14.7626L13.8046 14.7842" fill="white"/>
<path fill-rule="evenodd" clip-rule="evenodd" d="M13.9111 14.8923L13.8016 14.8131L13.842 14.7584" fill="white"/>
<path fill-rule="evenodd" clip-rule="evenodd" d="M13.7512 14.8923L13.8607 14.8131L13.8203 14.7584" fill="white"/>
<path fill-rule="evenodd" clip-rule="evenodd" d="M13.7512 14.8922L13.793 14.7626L13.8578 14.7842" fill="white"/>
<path fill-rule="evenodd" clip-rule="evenodd" d="M13.0471 14.5308L13.0054 14.6604L13.0702 14.682" fill="black"/>
<path fill-rule="evenodd" clip-rule="evenodd" d="M13.047 14.5308L13.0887 14.6604L13.0239 14.682" fill="white"/>
<path fill-rule="evenodd" clip-rule="evenodd" d="M13.1769 14.6243H13.0415V14.692" fill="white"/>
<path fill-rule="evenodd" clip-rule="evenodd" d="M13.1769 14.6243L13.0674 14.7035L13.0271 14.6488" fill="white"/>
<path fill-rule="evenodd" clip-rule="evenodd" d="M12.9189 14.6243L13.0284 14.7035L13.0687 14.6488" fill="white"/>
<path fill-rule="evenodd" clip-rule="evenodd" d="M12.9189 14.6243H13.0543V14.692" fill="white"/>
<path fill-rule="evenodd" clip-rule="evenodd" d="M13.1277 14.777L13.0859 14.6474L13.0211 14.669" fill="white"/>
<path fill-rule="evenodd" clip-rule="evenodd" d="M13.1279 14.777L13.0184 14.6978L13.0588 14.6431" fill="white"/>
<path fill-rule="evenodd" clip-rule="evenodd" d="M12.968 14.777L13.0775 14.6978L13.0371 14.6431" fill="white"/>
<path fill-rule="evenodd" clip-rule="evenodd" d="M12.968 14.777L13.0098 14.6474L13.0746 14.669" fill="white"/>
<path fill-rule="evenodd" clip-rule="evenodd" d="M10.0892 14.3206L10.0259 14.515L10.1224 14.5466" fill="black"/>
<path fill-rule="evenodd" clip-rule="evenodd" d="M10.0894 14.3206L10.1528 14.515L10.0563 14.5466" fill="white"/>
<path fill-rule="evenodd" clip-rule="evenodd" d="M10.2837 14.4617H10.0792V14.564" fill="white"/>
<path fill-rule="evenodd" clip-rule="evenodd" d="M10.2839 14.4617L10.1183 14.5812L10.0579 14.4992" fill="white"/>
<path fill-rule="evenodd" clip-rule="evenodd" d="M9.89648 14.4617L10.0621 14.5812L10.1226 14.4992" fill="white"/>
<path fill-rule="evenodd" clip-rule="evenodd" d="M9.89648 14.4617H10.101V14.564" fill="white"/>
<path fill-rule="evenodd" clip-rule="evenodd" d="M10.2089 14.6892L10.1456 14.4948L10.0491 14.5265" fill="white"/>
<path fill-rule="evenodd" clip-rule="evenodd" d="M10.2091 14.6891L10.0435 14.5696L10.1039 14.4875" fill="white"/>
<path fill-rule="evenodd" clip-rule="evenodd" d="M9.96997 14.6891L10.1356 14.5696L10.0751 14.4875" fill="white"/>
<path fill-rule="evenodd" clip-rule="evenodd" d="M9.96997 14.6892L10.0333 14.4948L10.1298 14.5265" fill="white"/>
<path fill-rule="evenodd" clip-rule="evenodd" d="M11.9989 15.6539L11.9773 15.7187L12.009 15.7287" fill="black"/>
<path fill-rule="evenodd" clip-rule="evenodd" d="M11.9988 15.6539L12.0204 15.7187L11.9888 15.7287" fill="white"/>
<path fill-rule="evenodd" clip-rule="evenodd" d="M12.0637 15.7001H11.996V15.7346" fill="white"/>
<path fill-rule="evenodd" clip-rule="evenodd" d="M12.0636 15.7001L12.0089 15.7404L11.9888 15.713" fill="white"/>
<path fill-rule="evenodd" clip-rule="evenodd" d="M11.934 15.7001L11.9887 15.7404L12.0088 15.713" fill="white"/>
<path fill-rule="evenodd" clip-rule="evenodd" d="M11.934 15.7001H12.0016V15.7346" fill="white"/>
<path fill-rule="evenodd" clip-rule="evenodd" d="M12.0391 15.7764L12.0175 15.7116L11.9858 15.7217" fill="white"/>
<path fill-rule="evenodd" clip-rule="evenodd" d="M12.0392 15.7764L11.9845 15.7361L12.0047 15.7087" fill="white"/>
<path fill-rule="evenodd" clip-rule="evenodd" d="M11.9585 15.7764L12.0132 15.7361L11.9931 15.7087" fill="white"/>
<path fill-rule="evenodd" clip-rule="evenodd" d="M11.9585 15.7764L11.9801 15.7116L12.0118 15.7217" fill="white"/>
<path fill-rule="evenodd" clip-rule="evenodd" d="M16.7567 11.9992C16.7567 9.37126 14.6269 7.24152 11.9989 7.24152C9.37095 7.24152 7.24121 9.37126 7.24121 11.9992C7.24121 14.6272 9.37095 16.757 11.9989 16.757C14.6269 16.757 16.7567 14.6272 16.7567 11.9992Z" fill="#002776"/>
</g>
</svg>
