<svg width="145" height="56" viewBox="0 0 145 56" fill="none" xmlns="http://www.w3.org/2000/svg">
<path d="M93.95 27.26C95.13 27.48 96.1 28.07 96.86 29.03C97.62 29.99 98 31.09 98 32.33C98 33.45 97.72 34.44 97.16 35.3C96.62 36.14 95.83 36.8 94.79 37.28C93.75 37.76 92.52 38 91.1 38H82.07V17.06H90.71C92.13 17.06 93.35 17.29 94.37 17.75C95.41 18.21 96.19 18.85 96.71 19.67C97.25 20.49 97.52 21.42 97.52 22.46C97.52 23.68 97.19 24.7 96.53 25.52C95.89 26.34 95.03 26.92 93.95 27.26ZM86.27 25.7H90.11C91.11 25.7 91.88 25.48 92.42 25.04C92.96 24.58 93.23 23.93 93.23 23.09C93.23 22.25 92.96 21.6 92.42 21.14C91.88 20.68 91.11 20.45 90.11 20.45H86.27V25.7ZM90.5 34.58C91.52 34.58 92.31 34.34 92.87 33.86C93.45 33.38 93.74 32.7 93.74 31.82C93.74 30.92 93.44 30.22 92.84 29.72C92.24 29.2 91.43 28.94 90.41 28.94H86.27V34.58H90.5ZM105.547 15.8V38H101.347V15.8H105.547ZM125.387 21.38V38H121.157V35.9C120.617 36.62 119.907 37.19 119.027 37.61C118.167 38.01 117.227 38.21 116.207 38.21C114.907 38.21 113.757 37.94 112.757 37.4C111.757 36.84 110.967 36.03 110.387 34.97C109.827 33.89 109.547 32.61 109.547 31.13V21.38H113.747V30.53C113.747 31.85 114.077 32.87 114.737 33.59C115.397 34.29 116.297 34.64 117.437 34.64C118.597 34.64 119.507 34.29 120.167 33.59C120.827 32.87 121.157 31.85 121.157 30.53V21.38H125.387ZM144.981 29.33C144.981 29.93 144.941 30.47 144.861 30.95H132.711C132.811 32.15 133.231 33.09 133.971 33.77C134.711 34.45 135.621 34.79 136.701 34.79C138.261 34.79 139.371 34.12 140.031 32.78H144.561C144.081 34.38 143.161 35.7 141.801 36.74C140.441 37.76 138.771 38.27 136.791 38.27C135.191 38.27 133.751 37.92 132.471 37.22C131.211 36.5 130.221 35.49 129.501 34.19C128.801 32.89 128.451 31.39 128.451 29.69C128.451 27.97 128.801 26.46 129.501 25.16C130.201 23.86 131.181 22.86 132.441 22.16C133.701 21.46 135.151 21.11 136.791 21.11C138.371 21.11 139.781 21.45 141.021 22.13C142.281 22.81 143.251 23.78 143.931 25.04C144.631 26.28 144.981 27.71 144.981 29.33ZM140.631 28.13C140.611 27.05 140.221 26.19 139.461 25.55C138.701 24.89 137.771 24.56 136.671 24.56C135.631 24.56 134.751 24.88 134.031 25.52C133.331 26.14 132.901 27.01 132.741 28.13H140.631Z" fill="#151D48"/>
<path d="M48 0H8C3.58172 0 0 3.58172 0 8V48C0 52.4183 3.58172 56 8 56H48C52.4183 56 56 52.4183 56 48V8C56 3.58172 52.4183 0 48 0Z" fill="#2500FF"/>
<path fill-rule="evenodd" clip-rule="evenodd" d="M42.1805 22.863C41.9125 22.7209 41.6193 22.6025 41.3108 22.5172C41.2046 22.4887 41.0985 22.4651 40.9923 22.4414C39.0608 22.0671 37.1698 23.2231 36.6895 25.014C36.649 25.1609 36.6086 25.3125 36.558 25.4594C36.4417 25.8337 36.3052 26.1985 36.1586 26.5538C33.6356 32.5709 26.5873 35.9016 19.8322 34.0538C19.544 33.9733 19.2609 33.888 18.9828 33.7932C18.4468 33.6132 17.9311 33.4 17.4356 33.1631C15.7671 32.3624 13.7092 32.8267 12.6676 34.286C12.4452 34.5987 12.2682 34.9493 12.1469 35.3283C12.1367 35.3615 12.1266 35.3946 12.1165 35.4325C11.6817 36.9913 12.4957 38.6258 14.0277 39.3602C14.6547 39.6634 15.307 39.9382 15.9744 40.1799C16.5508 40.3883 17.1373 40.5778 17.744 40.7437C28.4176 43.6574 39.5715 38.2468 43.2827 28.5769C43.4294 28.1931 43.5659 27.7999 43.6872 27.4066C43.758 27.1792 43.8237 26.9518 43.8844 26.7244C44.2889 25.2177 43.6114 23.6211 42.1704 22.8583L42.1805 22.863Z" fill="white"/>
<path fill-rule="evenodd" clip-rule="evenodd" d="M29.4032 15.4485C27.7701 14.7283 26.1723 14.8847 24.6959 15.8512C23.6088 16.5619 23.0577 17.5995 22.7746 18.7839C22.6886 19.144 22.6532 19.5088 22.6229 19.8736C22.5925 19.8736 22.5824 19.8736 22.5824 19.8736C22.542 19.8405 22.5015 19.812 22.4661 19.7789C21.1819 18.7318 19.7206 18.2438 18.0167 18.6134C14.5886 19.3572 13.183 23.1143 15.3673 25.6822C16.151 26.6014 17.1673 27.2457 18.2746 27.7669C19.392 28.2928 20.5499 28.7097 21.738 29.0698C23.088 29.4772 24.4583 29.8231 25.8487 30.0837C26.688 30.24 27.4262 30.0174 28.0633 29.482C28.4122 29.193 28.6144 28.8045 28.8319 28.4349C29.9745 26.5113 31.001 24.5404 31.6684 22.4226C31.9768 21.4466 32.179 20.4516 32.1234 19.4283C32.0274 17.6089 31.1729 16.2302 29.4032 15.4485Z" fill="white"/>
</svg>
