<svg width="49" height="48" viewBox="0 0 49 48" fill="none" xmlns="http://www.w3.org/2000/svg">
<path d="M32.5 0H16.5C7.66344 0 0.5 7.16344 0.5 16V32C0.5 40.8366 7.66344 48 16.5 48H32.5C41.3366 48 48.5 40.8366 48.5 32V16C48.5 7.16344 41.3366 0 32.5 0Z" fill="white"/>
<path d="M18.551 13.697C17.419 14.85 17.419 16.716 18.572 17.869L21.088 20.385C23.457 22.754 23.457 26.611 21.088 28.98L16.476 24.368C15.291 23.183 14.694 21.621 14.694 20.07C14.694 18.519 15.291 16.957 16.476 15.772L18.52 13.728C18.53 13.718 18.541 13.707 18.551 13.697Z" fill="#2500FF"/>
<path d="M20.564 19.859L18.572 17.868C17.419 16.715 17.409 14.859 18.551 13.696C19.683 12.584 21.486 12.605 22.608 13.727C23.174 14.293 23.457 15.037 23.457 15.771C23.457 16.505 23.174 17.249 22.608 17.815L22.136 18.287" fill="#2500FF"/>
<path d="M30.449 34.294C31.581 33.141 31.581 31.275 30.428 30.122L27.912 27.606C25.543 25.237 25.543 21.38 27.912 19.011L32.524 23.623C33.709 24.807 34.306 26.369 34.306 27.921C34.306 29.472 33.709 31.034 32.524 32.218L30.48 34.262C30.459 34.283 30.449 34.294 30.449 34.294Z" fill="#2500FF"/>
<path d="M28.425 28.141L30.417 30.132C31.57 31.285 31.58 33.141 30.438 34.304C29.306 35.415 27.503 35.395 26.381 34.273C25.815 33.707 25.532 32.963 25.532 32.229C25.532 31.495 25.815 30.751 26.381 30.185L26.863 29.703" fill="#2500FF"/>
</svg>
