<svg width="32" height="32" viewBox="0 0 32 32" fill="none" xmlns="http://www.w3.org/2000/svg">
<mask id="mask0_120_4" style="mask-type:luminance" maskUnits="userSpaceOnUse" x="0" y="0" width="32" height="32">
<path d="M32 0H0V32H32V0Z" fill="#B1B3C1"/>
</mask>
<g mask="url(#mask0_120_4)">
<path d="M13.6704 7.84602L14.0416 13.366L14.2258 16.14C14.2278 16.425 14.2725 16.709 14.3588 16.981C14.5813 17.51 15.1168 17.846 15.6993 17.823L24.5756 17.242C24.96 17.236 25.3312 17.379 25.6074 17.642C25.8377 17.86 25.9864 18.146 26.0333 18.454L26.049 18.64C25.6817 23.727 21.9461 27.969 16.8704 29.064C11.7946 30.159 6.58969 27.846 4.08149 23.38C3.35839 22.082 2.90669 20.656 2.75299 19.185C2.68879 18.75 2.6605 18.31 2.6685 17.87C2.6605 12.417 6.54379 7.70302 11.9796 6.56602C12.6339 6.46402 13.2752 6.81103 13.5376 7.40703C13.6054 7.54603 13.6502 7.69402 13.6704 7.84602Z" fill="#B1B3C1"/>
<path opacity="0.4" d="M29.3335 13.083L29.3242 13.126L29.2973 13.19L29.301 13.363C29.2871 13.593 29.1983 13.814 29.0455 13.993C28.8862 14.179 28.6686 14.305 28.429 14.354L28.2829 14.374L18.0418 15.038C17.7011 15.072 17.3619 14.962 17.1087 14.736C16.8975 14.548 16.7626 14.293 16.7245 14.02L16.0371 3.793C16.0251 3.759 16.0251 3.72099 16.0371 3.68699C16.0465 3.40499 16.1706 3.138 16.3817 2.947C16.5926 2.755 16.8731 2.655 17.1602 2.668C23.2401 2.822 28.3499 7.19399 29.3335 13.083Z" fill="#B1B3C1"/>
<path d="M13.6704 7.84602L14.0416 13.366L14.2258 16.14C14.2278 16.425 14.2725 16.709 14.3588 16.981C14.5813 17.51 15.1168 17.846 15.6993 17.823L24.5756 17.242C24.96 17.236 25.3312 17.379 25.6074 17.642C25.8377 17.86 25.9864 18.146 26.0333 18.454L26.049 18.64C25.6817 23.727 21.9461 27.969 16.8704 29.064C11.7946 30.159 6.58969 27.846 4.08149 23.38C3.35839 22.082 2.90669 20.656 2.75299 19.185C2.68879 18.75 2.6605 18.31 2.6685 17.87C2.6605 12.417 6.54379 7.70302 11.9796 6.56602C12.6339 6.46402 13.2752 6.81103 13.5376 7.40703C13.6054 7.54603 13.6502 7.69402 13.6704 7.84602Z" fill="#B1B3C1"/>
<path opacity="0.4" d="M29.3335 13.083L29.3242 13.126L29.2973 13.19L29.301 13.363C29.2871 13.593 29.1983 13.814 29.0455 13.993C28.8862 14.179 28.6686 14.305 28.429 14.354L28.2829 14.374L18.0418 15.038C17.7011 15.072 17.3619 14.962 17.1087 14.736C16.8975 14.548 16.7626 14.293 16.7245 14.02L16.0371 3.793C16.0251 3.759 16.0251 3.72099 16.0371 3.68699C16.0465 3.40499 16.1706 3.138 16.3817 2.947C16.5926 2.755 16.8731 2.655 17.1602 2.668C23.2401 2.822 28.3499 7.19399 29.3335 13.083Z" fill="#B1B3C1"/>
</g>
</svg>
