<svg width="238" height="288" viewBox="0 0 238 288" fill="none" xmlns="http://www.w3.org/2000/svg">
<mask id="mask0_110_4" style="mask-type:alpha" maskUnits="userSpaceOnUse" x="0" y="0" width="238" height="288">
<rect width="238" height="288" fill="#D9D9D9"/>
</mask>
<g mask="url(#mask0_110_4)">
<rect width="238" height="288" fill="#2500FF"/>
<path d="M184 111.196C117.174 111.196 63 50.9568 63 -23.352C63 -97.6608 117.174 -157.9 184 -157.9C250.826 -157.9 305 -97.6608 305 -23.352C305 50.9568 250.826 111.196 184 111.196Z" fill="url(#paint0_linear_110_4)"/>
<path d="M-7 513.926C-91.4996 513.926 -160 438.503 -160 345.463C-160 252.423 -91.4996 177 -7 177C77.4996 177 146 252.423 146 345.463C146 438.503 77.4996 513.926 -7 513.926Z" fill="url(#paint1_linear_110_4)"/>
</g>
<defs>
<linearGradient id="paint0_linear_110_4" x1="28.363" y1="146.395" x2="149.051" y2="15.709" gradientUnits="userSpaceOnUse">
<stop stop-color="white" stop-opacity="0.4"/>
<stop offset="1" stop-color="white" stop-opacity="0"/>
</linearGradient>
<linearGradient id="paint1_linear_110_4" x1="194.538" y1="116.295" x2="-23.429" y2="288.343" gradientUnits="userSpaceOnUse">
<stop stop-color="white" stop-opacity="0.4"/>
<stop offset="1" stop-color="white" stop-opacity="0"/>
</linearGradient>
</defs>
</svg>
