<svg width="28" height="28" viewBox="0 0 28 28" fill="none" xmlns="http://www.w3.org/2000/svg">
<path d="M11.6704 5.84602L12.0416 11.366L12.2258 14.14C12.2278 14.425 12.2725 14.709 12.3588 14.981C12.5813 15.51 13.1168 15.846 13.6993 15.823L22.5756 15.242C22.96 15.236 23.3312 15.379 23.6074 15.642C23.8377 15.86 23.9864 16.146 24.0333 16.454L24.049 16.64C23.6817 21.727 19.9461 25.969 14.8704 27.064C9.79459 28.159 4.58969 25.846 2.08149 21.38C1.35839 20.082 0.906694 18.656 0.752994 17.185C0.688794 16.75 0.660498 16.31 0.668498 15.87C0.660498 10.417 4.54379 5.70302 9.97959 4.56602C10.6339 4.46402 11.2752 4.81103 11.5376 5.40703C11.6054 5.54603 11.6502 5.69402 11.6704 5.84602Z" fill="white"/>
<path opacity="0.4" d="M27.3335 11.083L27.3242 11.126L27.2973 11.19L27.301 11.363C27.2871 11.593 27.1983 11.814 27.0455 11.993C26.8862 12.179 26.6686 12.305 26.429 12.354L26.2829 12.374L16.0418 13.038C15.7011 13.072 15.3619 12.962 15.1087 12.736C14.8975 12.548 14.7626 12.293 14.7245 12.02L14.0371 1.793C14.0251 1.759 14.0251 1.72099 14.0371 1.68699C14.0465 1.40499 14.1706 1.138 14.3817 0.947003C14.5926 0.755003 14.8731 0.654996 15.1602 0.667996C21.2401 0.821996 26.3499 5.19399 27.3335 11.083Z" fill="white"/>
</svg>
