<svg width="56" height="56" viewBox="0 0 56 56" fill="none" xmlns="http://www.w3.org/2000/svg">
<path d="M48 0H8C3.58172 0 0 3.58172 0 8V48C0 52.4183 3.58172 56 8 56H48C52.4183 56 56 52.4183 56 48V8C56 3.58172 52.4183 0 48 0Z" fill="#2500FF"/>
<path fill-rule="evenodd" clip-rule="evenodd" d="M42.1805 22.863C41.9125 22.7209 41.6193 22.6025 41.3108 22.5172C41.2046 22.4887 41.0985 22.4651 40.9923 22.4414C39.0608 22.0671 37.1698 23.2231 36.6895 25.014C36.649 25.1609 36.6086 25.3125 36.558 25.4594C36.4417 25.8337 36.3052 26.1985 36.1586 26.5538C33.6356 32.5709 26.5873 35.9016 19.8322 34.0538C19.544 33.9733 19.2609 33.888 18.9828 33.7932C18.4468 33.6132 17.9311 33.4 17.4356 33.1631C15.7671 32.3624 13.7092 32.8267 12.6676 34.286C12.4452 34.5987 12.2682 34.9493 12.1469 35.3283C12.1367 35.3615 12.1266 35.3946 12.1165 35.4325C11.6817 36.9913 12.4957 38.6258 14.0277 39.3602C14.6547 39.6634 15.307 39.9382 15.9744 40.1799C16.5508 40.3883 17.1373 40.5778 17.744 40.7437C28.4176 43.6574 39.5715 38.2468 43.2827 28.5769C43.4294 28.1931 43.5659 27.7999 43.6872 27.4066C43.758 27.1792 43.8237 26.9518 43.8844 26.7244C44.2889 25.2177 43.6114 23.6211 42.1704 22.8583L42.1805 22.863Z" fill="white"/>
<path fill-rule="evenodd" clip-rule="evenodd" d="M29.4032 15.4485C27.7701 14.7283 26.1723 14.8847 24.6959 15.8512C23.6088 16.5619 23.0577 17.5995 22.7746 18.7839C22.6886 19.144 22.6532 19.5088 22.6229 19.8736C22.5925 19.8736 22.5824 19.8736 22.5824 19.8736C22.542 19.8405 22.5015 19.812 22.4661 19.7789C21.1819 18.7318 19.7206 18.2438 18.0167 18.6134C14.5886 19.3572 13.183 23.1143 15.3673 25.6822C16.151 26.6014 17.1673 27.2457 18.2746 27.7669C19.392 28.2928 20.5499 28.7097 21.738 29.0698C23.088 29.4772 24.4583 29.8231 25.8487 30.0837C26.688 30.24 27.4262 30.0174 28.0633 29.482C28.4122 29.193 28.6144 28.8045 28.8319 28.4349C29.9745 26.5113 31.001 24.5404 31.6684 22.4226C31.9768 21.4466 32.179 20.4516 32.1234 19.4283C32.0274 17.6089 31.1729 16.2302 29.4032 15.4485Z" fill="white"/>
</svg>
